<svg enable-background="new -278 401.9 38 38" viewBox="-278 401.9 38 38" xmlns="http://www.w3.org/2000/svg"><path d="m-240 439.9h-38v-38h38z" fill="#ebebeb"/><path d="m-267.1 414.9c0-1 .3-2.1 1-3.1.7-1.1 1.6-1.9 2.9-2.6s2.7-1 4.4-1c1.6 0 3 .3 4.2.9s2.1 1.4 2.8 2.4 1 2.1 1 3.2c0 .9-.2 1.7-.6 2.4s-.8 1.3-1.3 1.8-1.4 1.3-2.8 2.5c-.4.3-.7.6-.9.9s-.4.5-.5.7-.2.4-.3.6-.1.6-.3 1.1c-.2 1.1-.9 1.7-1.9 1.7-.6 0-1-.2-1.4-.6s-.6-.9-.6-1.6c0-.9.1-1.7.4-2.4s.7-1.2 1.1-1.8c.5-.5 1.1-1.1 1.9-1.8.7-.6 1.2-1.1 1.5-1.4s.6-.7.8-1c.2-.4.3-.8.3-1.2 0-.9-.3-1.6-1-2.2-.6-.6-1.5-.9-2.5-.9-1.2 0-2.1.3-2.6.9-.6.6-1 1.5-1.4 2.7s-1.1 1.8-2.1 1.8c-.6 0-1.1-.2-1.5-.6s-.6-.9-.6-1.4zm8 18.8c-.7 0-1.2-.2-1.7-.6s-.7-1-.7-1.8c0-.7.2-1.3.7-1.7.5-.5 1.1-.7 1.8-.7s1.3.2 1.7.7c.5.5.7 1 .7 1.7 0 .8-.2 1.4-.7 1.8-.6.4-1.2.6-1.8.6z" fill="#fff"/></svg>