<?xml version="1.0" encoding="UTF-8" standalone="no"?>
<!-- Created with Inkscape (http://www.inkscape.org/) -->

<svg
   xmlns:dc="http://purl.org/dc/elements/1.1/"
   xmlns:cc="http://creativecommons.org/ns#"
   xmlns:rdf="http://www.w3.org/1999/02/22-rdf-syntax-ns#"
   xmlns:svg="http://www.w3.org/2000/svg"
   xmlns="http://www.w3.org/2000/svg"
   xmlns:sodipodi="http://sodipodi.sourceforge.net/DTD/sodipodi-0.dtd"
   xmlns:inkscape="http://www.inkscape.org/namespaces/inkscape"
   width="128"
   height="128"
   viewBox="0 0 128 128"
   id="svg4148"
   version="1.1"
   inkscape:version="0.91 r13725"
   sodipodi:docname="icon128_firefox.svg">
  <defs
     id="defs4150" />
  <sodipodi:namedview
     id="base"
     pagecolor="#ffffff"
     bordercolor="#666666"
     borderopacity="1.0"
     inkscape:pageopacity="0.0"
     inkscape:pageshadow="2"
     inkscape:zoom="1.979899"
     inkscape:cx="-5.648294"
     inkscape:cy="83.204756"
     inkscape:document-units="px"
     inkscape:current-layer="layer1"
     showgrid="false"
     units="px"
     inkscape:window-width="1304"
     inkscape:window-height="745"
     inkscape:window-x="-8"
     inkscape:window-y="-8"
     inkscape:window-maximized="1" />
  <metadata
     id="metadata4153">
    <rdf:RDF>
      <cc:Work
         rdf:about="">
        <dc:format>image/svg+xml</dc:format>
        <dc:type
           rdf:resource="http://purl.org/dc/dcmitype/StillImage" />
        <dc:title></dc:title>
      </cc:Work>
    </rdf:RDF>
  </metadata>
  <g
     inkscape:label="Layer 1"
     inkscape:groupmode="layer"
     id="layer1"
     transform="translate(0,-924.36216)">
    <rect
       style="fill:#4fbeec;fill-opacity:1"
       id="rect5840"
       width="118"
       height="118"
       x="5"
       y="929.36218"
       ry="20" />
    <path
       style="fill:#e05f26;fill-opacity:1;stroke:none;stroke-width:0.40000001;stroke-miterlimit:4;stroke-dasharray:none;stroke-opacity:1"
       d="m 94.548828,5 c 0,0 5.514452,1.5978856 7.242192,3.4785156 0.32471,0.35344 0.65234,1.1445313 0.65234,1.1445313 0,0 -5.440069,-0.328305 -7.980469,-0.015625 -2.67918,0.32979 -7.855469,1.9648441 -7.855469,1.9648441 0,0 6.78533,1.423014 10,2.677734 2.62906,1.02616 5.183888,2.317047 7.499998,3.929688 8.27135,5.185884 11.78516,18.882812 11.78516,18.882812 l -3.57227,-1.5625 -7.4414,-1.322266 c 0,0 3.91189,4.323742 5.05632,5.937748 1.99514,2.739775 2.64161,12.068495 2.64161,12.068495 0,0 -0.96866,-2.525452 -1.67396,-3.567208 -0.7053,-1.041755 -2.55784,-2.683323 -2.55784,-2.683323 l 1.9019,6.470506 c 0,0 0.13826,1.983061 0.23953,4.602249 0.10128,2.619189 0.16557,5.874505 0.0177,8.419017 -0.26114,4.491888 -1.24668,9.587092 -1.57583,11.057762 -0.51431,2.298001 -1.59505,5.950642 -2.50056,8.124442 -0.58919,1.4144 -1.3255,2.783978 -2.23437,4.017578 -1.09847,1.4909 -3.83594,4.017578 -3.83594,4.017578 0,0 1.53873,-4.829812 1.96485,-7.320312 0.26175,-1.5299 0.35546,-4.642581 0.35546,-4.642578 0,0 -3.99792,6.180734 -6.42773,8.927734 -2.14869,2.4292 -4.372312,4.913022 -6.919922,6.919922 -2.19188,1.7266 -4.57904,3.339384 -7.1875,4.330076 -2.02249,0.7682 -4.24794,0.91145 -6.40625,1.06055 -2.19691,0.1518 -4.455186,0.18473 -6.628906,-0.16797 -4.08774,-0.6633 -7.999927,-2.252334 -11.78711,-3.927734 C 54.761294,96.690166 52.31353,95.288944 50,93.714844 c -1.71382,-1.1661 -4.820313,-3.927735 -4.820312,-3.927735 0,0 6.32439,0.144513 9.46289,-0.179687 2.22967,-0.2303 4.523182,-0.4251 6.607422,-1.25 3.60814,-1.428 6.498053,-4.2449 9.820312,-6.25 1.23271,-0.744 2.360404,-1.772978 3.751954,-2.142578 1.2081,-0.321 2.828203,-0.706819 4.001953,-1.136719 0.9517,-0.3485 1.996439,0.182875 2.068359,-0.828125 0.15255,-2.1447 -3.570876,-4.643666 -4.285156,-4.822266 -0.7143,-0.1786 -2.964181,-1.855578 -4.644531,-2.142578 -3.12341,-0.5333 -6.402661,0.07098 -9.462891,0.892578 -2.34081,0.6285 -4.288622,2.33161 -6.607422,3.03711 -1.78802,0.5439 -3.669096,0.996178 -5.535156,0.892578 -2.22065,-0.1233 -4.475825,-0.719056 -6.427734,-1.785156 -1.960831,-1.071 -3.088854,-2.226844 -5.001954,-4.464844 -3.46017,-4.0481 -4.490861,-5.488463 -3.050781,-8.289063 0.65664,-1.277 0.852043,-3.980434 3.601563,-4.990234 1.16597,-0.4282 2.392914,0.119019 3.646484,0.511719 1.41027,0.4418 2.574808,1.5549 4.017578,1.875 0.3197,0.071 0.982422,0 0.982422,0 0,0 -0.04382,-3.436957 -0.177734,-3.660156 -0.13393,-0.223301 -0.07778,-2.985922 -0.447266,-4.419922 -0.41579,-1.6138 -1.133814,-3.153137 -1.964844,-4.597657 -0.94401,-1.64087 -3.392578,-4.554687 -3.392578,-4.554687 0,0 2.321364,-2.400323 3.839844,-2.945313 0.81272,-0.29168 1.764114,-0.348656 2.58789,-0.08984 0.567901,0.17838 0.859618,0.898982 1.429688,1.070312 1.91315,0.57495 4.195612,0.537841 5.982422,-0.355469 1.60535,-0.80258 3.480469,-4.107422 3.480469,-4.107421 0,0 0.348146,0.598474 0.878906,0.802734 0.60089,0.23125 1.279274,0.121226 2.246094,-0.714844 0.57702,-0.49899 0.311372,-1.699772 0.132812,-2.414062 -0.17858,-0.71428 -0.236883,-1.242008 -0.845703,-1.554688 -0.54007,-0.27736 -1.292349,-0.310878 -1.787109,0.04102 -0.47849,0.3403 -0.892578,1.517578 -0.892579,1.517578 0,0 -2.85438,-1.744006 -4.46289,-2.052734 -2.25363,-0.43255 -4.63942,0.875191 -6.875,0.357421 -1.19429,-0.2766 -2.275894,-0.998949 -3.214844,-1.787109 -1.0859,-0.9115 -1.935124,-2.095034 -2.677734,-3.302734 -0.49533,-0.80554 -1.160156,-2.589844 -1.160156,-2.589844 0,0 0.952222,-2.99867 1.695312,-4.375 0.85143,-1.57698 1.9667,-3.00747 3.125,-4.375 1.0338,-1.22054 2.139598,-2.398358 3.392578,-3.392578 1.01561,-0.80587 3.302734,-2.0527346 3.302734,-2.0527346 0,0 -3.956265,0.2970706 -5.890624,0.7128906 -2.43873,0.52425 -4.889222,1.166692 -7.144532,2.232422 -1.86584,0.8817 -3.549454,2.124728 -5.177734,3.392578 -1.1801,0.91888 -3.304688,3.037109 -3.304688,3.037109 0,0 -2.148673,-0.129341 -3.214843,-0.269531 C 26.088921,18.070471 24.6297,17.612024 23.125,17.464844 21.37723,17.293884 19.599492,17.1534 17.857422,17.375 c -1.43972,0.18317 -4.195313,1.162109 -4.195313,1.162109 L 8.7695312,13.291016 C 6.3978815,16.578926 5,20.61855 5,25 l 0,78 c 0,11.08 8.919997,20 20,20 l 78,0 c 11.08,0 20,-8.92 20,-20 l 0,-78 C 123,13.92001 114.08,5 103,5 Z"
       transform="translate(0,924.36216)"
       id="rect6485"
       inkscape:connector-curvature="0"
       sodipodi:nodetypes="cscccsccccccsccssssccscscccssccsssccsscccsscscsccccscsccscssccccsssscssscssscsscccsssssssc" />
    <rect
       style="fill:#ffffff;fill-opacity:1"
       id="rect5846"
       width="94"
       height="94"
       x="17"
       y="941.36218"
       ry="12" />
    <g
       id="g5836"
       transform="matrix(2.3157895,0,0,2.3157895,20,944.36216)">
      <path
         style="fill:#178dce;fill-opacity:1"
         id="path4138"
         d="M 34,38 4,38 C 1.8,38 0,36.2 0,34 L 0,4 C 0,1.8 1.8,0 4,0 l 30,0 c 2.2,0 4,1.8 4,4 l 0,30 c 0,2.2 -1.8,4 -4,4 z"
         inkscape:connector-curvature="0" />
      <path
         id="path4140"
         d="m 26.5,26.7 c -5.8,0 -7.5,-2.8 -8.4,-5.5 l -1,-3.3 c -0.8,-2.4 -1.7,-4.5 -4.9,-4.5 -2.1,0 -4.3,1.5 -4.3,5.8 0,3.2 1.7,5.4 4.2,5.4 2,0 3.5,-1.1 4.1,-1.7 l 0.8,2.3 c -0.5,0.4 -2.2,1.5 -5.1,1.5 -4.5,0 -6.9,-2.6 -6.9,-7.4 0,-5.1 2.5,-7.9 7.1,-7.9 4.3,0 6.3,1.5 7.7,5.6 l 1.1,3.3 c 0.7,2 1.9,4.3 5.7,4.3 1.6,0 3.7,-0.2 3.7,-2 0,-1.2 -0.8,-1.9 -2.4,-2.3 l -2.2,-0.5 c -2.5,-0.6 -3.6,-1.8 -3.6,-4 0,-3.8 3.5,-4.4 5.5,-4.4 3.3,0 5,1.2 5.3,3.6 l -2.7,0.3 c -0.2,-1.3 -1.1,-2 -2.8,-2 -1.6,0 -2.6,0.8 -2.6,2.1 0,1.2 0.6,1.8 2.1,2.2 l 2.1,0.5 c 2.8,0.7 4.1,2 4.1,4.4 -0.1,2.7 -2.3,4.2 -6.6,4.2 z"
         inkscape:connector-curvature="0"
         style="fill:#ffffff" />
    </g>
  </g>
</svg>
