<svg height="128" viewBox="0 0 128 128" width="128" xmlns="http://www.w3.org/2000/svg"><g transform="translate(0 -924.36216)"><rect fill="#e03131" height="118" ry="20" width="118" x="5" y="929.36218"/><path d="m76.427734 27.642578 18.572266 73.572262-26.226562 21.78516h34.226562c11.08 0 20-8.92 20-20v-73.632812z" fill="#fcd11c" fill-rule="evenodd" transform="translate(0 924.36216)"/><path d="m5 37.957031v65.042969c0 11.08 8.92 20 20 20h54.832031l12.310547-23.214844-59.285156-7.857422z" fill="#49ac4b" fill-rule="evenodd" transform="translate(0 924.36216)"/><rect fill="#fff" height="94" ry="12" width="94" x="17" y="941.36218"/><g transform="matrix(2.3157895 0 0 2.3157895 20 944.36216)"><path d="m34 38h-30c-2.2 0-4-1.8-4-4v-30c0-2.2 1.8-4 4-4h30c2.2 0 4 1.8 4 4v30c0 2.2-1.8 4-4 4z" fill="#178dce"/><path d="m26.5 26.7c-5.8 0-7.5-2.8-8.4-5.5l-1-3.3c-.8-2.4-1.7-4.5-4.9-4.5-2.1 0-4.3 1.5-4.3 5.8 0 3.2 1.7 5.4 4.2 5.4 2 0 3.5-1.1 4.1-1.7l.8 2.3c-.5.4-2.2 1.5-5.1 1.5-4.5 0-6.9-2.6-6.9-7.4 0-5.1 2.5-7.9 7.1-7.9 4.3 0 6.3 1.5 7.7 5.6l1.1 3.3c.7 2 1.9 4.3 5.7 4.3 1.6 0 3.7-.2 3.7-2 0-1.2-.8-1.9-2.4-2.3l-2.2-.5c-2.5-.6-3.6-1.8-3.6-4 0-3.8 3.5-4.4 5.5-4.4 3.3 0 5 1.2 5.3 3.6l-2.7.3c-.2-1.3-1.1-2-2.8-2-1.6 0-2.6.8-2.6 2.1 0 1.2.6 1.8 2.1 2.2l2.1.5c2.8.7 4.1 2 4.1 4.4-.1 2.7-2.3 4.2-6.6 4.2z" fill="#fff"/></g></g></svg>