<svg height="128" viewBox="0 0 128 128" width="128" xmlns="http://www.w3.org/2000/svg"><g transform="translate(0 -924.36216)"><rect fill="#4fbeec" height="118" ry="20" width="118" x="5" y="929.36218"/><path d="m94.548828 5s5.514452 1.5978856 7.242192 3.4785156c.32471.35344.65234 1.1445313.65234 1.1445313s-5.440069-.328305-7.980469-.015625c-2.67918.32979-7.855469 1.9648441-7.855469 1.9648441s6.78533 1.423014 10 2.677734c2.62906 1.02616 5.183888 2.317047 7.499998 3.929688 8.27135 5.185884 11.78516 18.882812 11.78516 18.882812l-3.57227-1.5625-7.4414-1.322266s3.91189 4.323742 5.05632 5.937748c1.99514 2.739775 2.64161 12.068495 2.64161 12.068495s-.96866-2.525452-1.67396-3.567208c-.7053-1.041755-2.55784-2.683323-2.55784-2.683323l1.9019 6.470506s.13826 1.983061.23953 4.602249c.10128 2.619189.16557 5.874505.0177 8.419017-.26114 4.491888-1.24668 9.587092-1.57583 11.057762-.51431 2.298001-1.59505 5.950642-2.50056 8.124442-.58919 1.4144-1.3255 2.783978-2.23437 4.017578-1.09847 1.4909-3.83594 4.017578-3.83594 4.017578s1.53873-4.829812 1.96485-7.320312c.26175-1.5299.35546-4.642581.35546-4.642578 0 0-3.99792 6.180734-6.42773 8.927734-2.14869 2.4292-4.372312 4.913022-6.919922 6.919922-2.19188 1.7266-4.57904 3.339384-7.1875 4.330076-2.02249.7682-4.24794.91145-6.40625 1.06055-2.19691.1518-4.455186.18473-6.628906-.16797-4.08774-.6633-7.999927-2.252334-11.78711-3.927734-2.559068-1.1321-5.006832-2.533322-7.320362-4.107422-1.71382-1.1661-4.820313-3.927735-4.820312-3.927735 0 0 6.32439.144513 9.46289-.179687 2.22967-.2303 4.523182-.4251 6.607422-1.25 3.60814-1.428 6.498053-4.2449 9.820312-6.25 1.23271-.744 2.360404-1.772978 3.751954-2.142578 1.2081-.321 2.828203-.706819 4.001953-1.136719.9517-.3485 1.996439.182875 2.068359-.828125.15255-2.1447-3.570876-4.643666-4.285156-4.822266-.7143-.1786-2.964181-1.855578-4.644531-2.142578-3.12341-.5333-6.402661.07098-9.462891.892578-2.34081.6285-4.288622 2.33161-6.607422 3.03711-1.78802.5439-3.669096.996178-5.535156.892578-2.22065-.1233-4.475825-.719056-6.427734-1.785156-1.960831-1.071-3.088854-2.226844-5.001954-4.464844-3.46017-4.0481-4.490861-5.488463-3.050781-8.289063.65664-1.277.852043-3.980434 3.601563-4.990234 1.16597-.4282 2.392914.119019 3.646484.511719 1.41027.4418 2.574808 1.5549 4.017578 1.875.3197.071.982422 0 .982422 0s-.04382-3.436957-.177734-3.660156c-.13393-.223301-.07778-2.985922-.447266-4.419922-.41579-1.6138-1.133814-3.153137-1.964844-4.597657-.94401-1.64087-3.392578-4.554687-3.392578-4.554687s2.321364-2.400323 3.839844-2.945313c.81272-.29168 1.764114-.348656 2.58789-.08984.567901.17838.859618.898982 1.429688 1.070312 1.91315.57495 4.195612.537841 5.982422-.355469 1.60535-.80258 3.480469-4.107422 3.480469-4.107421 0 0 .348146.598474.878906.802734.60089.23125 1.279274.121226 2.246094-.714844.57702-.49899.311372-1.699772.132812-2.414062-.17858-.71428-.236883-1.242008-.845703-1.554688-.54007-.27736-1.292349-.310878-1.787109.04102-.47849.3403-.892578 1.517578-.892579 1.517578 0 0-2.85438-1.744006-4.46289-2.052734-2.25363-.43255-4.63942.875191-6.875.357421-1.19429-.2766-2.275894-.998949-3.214844-1.787109-1.0859-.9115-1.935124-2.095034-2.677734-3.302734-.49533-.80554-1.160156-2.589844-1.160156-2.589844s.952222-2.99867 1.695312-4.375c.85143-1.57698 1.9667-3.00747 3.125-4.375 1.0338-1.22054 2.139598-2.398358 3.392578-3.392578 1.01561-.80587 3.302734-2.0527346 3.302734-2.0527346s-3.956265.2970706-5.890624.7128906c-2.43873.52425-4.889222 1.166692-7.144532 2.232422-1.86584.8817-3.549454 2.124728-5.177734 3.392578-1.1801.91888-3.304688 3.037109-3.304688 3.037109s-2.148673-.129341-3.214843-.269531c-1.49897-.197114-2.958191-.655561-4.462891-.802741-1.74777-.17096-3.525508-.311444-5.267578-.089844-1.43972.18317-4.195313 1.162109-4.195313 1.162109l-4.8925778-5.246093c-2.3716497 3.28791-3.7695312 7.327534-3.7695312 11.708984v78c0 11.08 8.919997 20 20 20h78c11.08 0 20-8.92 20-20v-78c0-11.07999-8.92-20-20-20z" fill="#e05f26" transform="translate(0 924.36216)"/><rect fill="#fff" height="94" ry="12" width="94" x="17" y="941.36218"/><g transform="matrix(2.3157895 0 0 2.3157895 20 944.36216)"><path d="m34 38h-30c-2.2 0-4-1.8-4-4v-30c0-2.2 1.8-4 4-4h30c2.2 0 4 1.8 4 4v30c0 2.2-1.8 4-4 4z" fill="#178dce"/><path d="m26.5 26.7c-5.8 0-7.5-2.8-8.4-5.5l-1-3.3c-.8-2.4-1.7-4.5-4.9-4.5-2.1 0-4.3 1.5-4.3 5.8 0 3.2 1.7 5.4 4.2 5.4 2 0 3.5-1.1 4.1-1.7l.8 2.3c-.5.4-2.2 1.5-5.1 1.5-4.5 0-6.9-2.6-6.9-7.4 0-5.1 2.5-7.9 7.1-7.9 4.3 0 6.3 1.5 7.7 5.6l1.1 3.3c.7 2 1.9 4.3 5.7 4.3 1.6 0 3.7-.2 3.7-2 0-1.2-.8-1.9-2.4-2.3l-2.2-.5c-2.5-.6-3.6-1.8-3.6-4 0-3.8 3.5-4.4 5.5-4.4 3.3 0 5 1.2 5.3 3.6l-2.7.3c-.2-1.3-1.1-2-2.8-2-1.6 0-2.6.8-2.6 2.1 0 1.2.6 1.8 2.1 2.2l2.1.5c2.8.7 4.1 2 4.1 4.4-.1 2.7-2.3 4.2-6.6 4.2z" fill="#fff"/></g></g></svg>