<?xml version="1.0" encoding="UTF-8" standalone="no"?>
<!-- Created with Inkscape (http://www.inkscape.org/) -->

<svg
   xmlns:dc="http://purl.org/dc/elements/1.1/"
   xmlns:cc="http://creativecommons.org/ns#"
   xmlns:rdf="http://www.w3.org/1999/02/22-rdf-syntax-ns#"
   xmlns:svg="http://www.w3.org/2000/svg"
   xmlns="http://www.w3.org/2000/svg"
   xmlns:sodipodi="http://sodipodi.sourceforge.net/DTD/sodipodi-0.dtd"
   xmlns:inkscape="http://www.inkscape.org/namespaces/inkscape"
   width="128"
   height="128"
   viewBox="0 0 128 128"
   id="svg4148"
   version="1.1"
   inkscape:version="0.91 r13725"
   sodipodi:docname="icon128.svg">
  <defs
     id="defs4150" />
  <sodipodi:namedview
     id="base"
     pagecolor="#ffffff"
     bordercolor="#666666"
     borderopacity="1.0"
     inkscape:pageopacity="0.0"
     inkscape:pageshadow="2"
     inkscape:zoom="2.8"
     inkscape:cx="60.276789"
     inkscape:cy="48.131222"
     inkscape:document-units="px"
     inkscape:current-layer="layer1"
     showgrid="false"
     units="px"
     inkscape:window-width="1304"
     inkscape:window-height="745"
     inkscape:window-x="-8"
     inkscape:window-y="-8"
     inkscape:window-maximized="1" />
  <metadata
     id="metadata4153">
    <rdf:RDF>
      <cc:Work
         rdf:about="">
        <dc:format>image/svg+xml</dc:format>
        <dc:type
           rdf:resource="http://purl.org/dc/dcmitype/StillImage" />
        <dc:title></dc:title>
      </cc:Work>
    </rdf:RDF>
  </metadata>
  <g
     inkscape:label="Layer 1"
     inkscape:groupmode="layer"
     id="layer1"
     transform="translate(0,-924.36216)">
    <rect
       style="fill:#e03131;fill-opacity:1"
       id="rect5840"
       width="118"
       height="118"
       x="5"
       y="929.36218"
       ry="20" />
    <path
       style="fill:#fcd11c;fill-rule:evenodd;stroke:none;stroke-width:1px;stroke-linecap:butt;stroke-linejoin:miter;stroke-opacity:1;fill-opacity:1"
       d="M 76.427734 27.642578 L 95 101.21484 L 68.773438 123 L 103 123 C 114.08 123 123 114.08 123 103 L 123 29.367188 L 76.427734 27.642578 z "
       transform="translate(0,924.36216)"
       id="path4737" />
    <path
       style="fill:#49ac4b;fill-rule:evenodd;stroke:none;stroke-width:1px;stroke-linecap:butt;stroke-linejoin:miter;stroke-opacity:1;fill-opacity:1"
       d="M 5 37.957031 L 5 103 C 5 114.08 13.92 123 25 123 L 79.832031 123 L 92.142578 99.785156 L 32.857422 91.927734 L 5 37.957031 z "
       transform="translate(0,924.36216)"
       id="path4718" />
    <rect
       style="fill:#ffffff;fill-opacity:1"
       id="rect5846"
       width="94"
       height="94"
       x="17"
       y="941.36218"
       ry="12" />
    <g
       id="g5836"
       transform="matrix(2.3157895,0,0,2.3157895,20,944.36216)">
      <path
         style="fill:#178dce;fill-opacity:1"
         id="path4138"
         d="M 34,38 4,38 C 1.8,38 0,36.2 0,34 L 0,4 C 0,1.8 1.8,0 4,0 l 30,0 c 2.2,0 4,1.8 4,4 l 0,30 c 0,2.2 -1.8,4 -4,4 z"
         inkscape:connector-curvature="0" />
      <path
         id="path4140"
         d="m 26.5,26.7 c -5.8,0 -7.5,-2.8 -8.4,-5.5 l -1,-3.3 c -0.8,-2.4 -1.7,-4.5 -4.9,-4.5 -2.1,0 -4.3,1.5 -4.3,5.8 0,3.2 1.7,5.4 4.2,5.4 2,0 3.5,-1.1 4.1,-1.7 l 0.8,2.3 c -0.5,0.4 -2.2,1.5 -5.1,1.5 -4.5,0 -6.9,-2.6 -6.9,-7.4 0,-5.1 2.5,-7.9 7.1,-7.9 4.3,0 6.3,1.5 7.7,5.6 l 1.1,3.3 c 0.7,2 1.9,4.3 5.7,4.3 1.6,0 3.7,-0.2 3.7,-2 0,-1.2 -0.8,-1.9 -2.4,-2.3 l -2.2,-0.5 c -2.5,-0.6 -3.6,-1.8 -3.6,-4 0,-3.8 3.5,-4.4 5.5,-4.4 3.3,0 5,1.2 5.3,3.6 l -2.7,0.3 c -0.2,-1.3 -1.1,-2 -2.8,-2 -1.6,0 -2.6,0.8 -2.6,2.1 0,1.2 0.6,1.8 2.1,2.2 l 2.1,0.5 c 2.8,0.7 4.1,2 4.1,4.4 -0.1,2.7 -2.3,4.2 -6.6,4.2 z"
         inkscape:connector-curvature="0"
         style="fill:#ffffff" />
    </g>
  </g>
</svg>
