<?xml version="1.0" encoding="utf-8"?>
<!-- Generator: Adobe Illustrator 24.1.2, SVG Export Plug-In . SVG Version: 6.00 Build 0)  -->
<svg xmlns="http://www.w3.org/2000/svg" xmlns:xlink="http://www.w3.org/1999/xlink" version="1.1" x="0" y="0" viewBox="0 0 38 38" enable-background="new 0 0 38 38" xml:space="preserve">
<style type="text/css">
	.st0{fill:#B8422C;}
	.st1{fill:#FFFFFF;}
</style>
<path id="path4138" class="st0" d="M34,38H4c-2.2,0-4-1.8-4-4V4c0-2.2,1.8-4,4-4h30c2.2,0,4,1.8,4,4v30C38,36.2,36.2,38,34,38z"/>
<path id="path4136" class="st1" d="M28.7,9.6c-2.6-2.5-6.4-2.1-8.7,0.7L19,11.5l-0.9-1.1
	c-2.4-2.8-6.2-3.2-8.7-0.7c-2.9,2.9-3.1,8-0.5,11.1l9.1,10.7c0.6,0.7,1.5,0.7,2.1,0l9.1-10.7C31.8,17.7,31.6,12.5,28.7,9.6z"/>
</svg>
