<?xml version="1.0" encoding="UTF-8" standalone="no"?>
<svg
   xmlns:dc="http://purl.org/dc/elements/1.1/"
   xmlns:cc="http://creativecommons.org/ns#"
   xmlns:rdf="http://www.w3.org/1999/02/22-rdf-syntax-ns#"
   xmlns:svg="http://www.w3.org/2000/svg"
   xmlns="http://www.w3.org/2000/svg"
   xmlns:sodipodi="http://sodipodi.sourceforge.net/DTD/sodipodi-0.dtd"
   xmlns:inkscape="http://www.inkscape.org/namespaces/inkscape"
   version="1.1"
   x="0"
   y="0"
   viewBox="0 0 38 38"
   enable-background="new 0 0 38 38"
   xml:space="preserve"
   id="svg2"
   inkscape:version="0.91 r13725"
   sodipodi:docname="page_action_unloved.svg"
   inkscape:export-filename="C:\Users\esprit\Desktop\page_action_unloved_19.png"
   inkscape:export-xdpi="45"
   inkscape:export-ydpi="45"><metadata
     id="metadata12"><rdf:RDF><cc:Work
         rdf:about=""><dc:format>image/svg+xml</dc:format><dc:type
           rdf:resource="http://purl.org/dc/dcmitype/StillImage" /><dc:title /></cc:Work></rdf:RDF></metadata><defs
     id="defs10" /><sodipodi:namedview
     pagecolor="#ffffff"
     bordercolor="#666666"
     borderopacity="1"
     objecttolerance="10"
     gridtolerance="10"
     guidetolerance="10"
     inkscape:pageopacity="0"
     inkscape:pageshadow="2"
     inkscape:window-width="1858"
     inkscape:window-height="1057"
     id="namedview8"
     showgrid="false"
     inkscape:zoom="1.0978763"
     inkscape:cx="61.775409"
     inkscape:cy="-178.44865"
     inkscape:window-x="-8"
     inkscape:window-y="-8"
     inkscape:window-maximized="1"
     inkscape:current-layer="svg2" /><path
     fill="#B90000"
     d="M34 38H4c-2.2 0-4-1.8-4-4V4c0-2.2 1.8-4 4-4h30c2.2 0 4 1.8 4 4v30C38 36.2 36.2 38 34 38z"
     id="path4" /><path
     inkscape:connector-curvature="0"
     style="fill:#ffffff;fill-opacity:1"
     d="m 12.931821,8.002942 c -2.916626,-0.1027909 -5.4031472,2.49466 -5.8854562,6.776534 -0.337547,2.996674 1.146671,6.121441 5.1525292,10.847421 2.555529,3.014926 5.083659,5.571834 6.252125,6.373103 L 19.90993,23.418245 13.948117,18.117478 17.30937,9.839061 C 16.887884,9.641345 16.437316,9.378969 15.933348,9.04351 14.923848,8.3715519 13.904029,8.0372056 12.931821,8.002942 Z m 12.136358,0 c -0.77736,0.027397 -1.585283,0.2503826 -2.393952,0.6806542 l -3.712814,9.2354318 4.633563,4.711935 -3.881036,9.250225 c 1.229829,-0.912741 3.645194,-3.373335 6.087165,-6.254291 4.005859,-4.72598 5.490077,-7.850748 5.15253,-10.847421 -0.48231,-4.281874 -2.968831,-6.8793291 -5.885456,-6.776534 z"
     id="path5741" /></svg>