<?xml version="1.0" encoding="utf-8"?>
<!-- Generator: Adobe Illustrator 24.1.2, SVG Export Plug-In . SVG Version: 6.00 Build 0)  -->
<svg xmlns="http://www.w3.org/2000/svg" xmlns:xlink="http://www.w3.org/1999/xlink" version="1.1" x="0" y="0" viewBox="0 0 38 38" enable-background="new 0 0 38 38" xml:space="preserve">
<path id="path4138" fill="#B8422C" d="M34,38H4c-2.2,0-4-1.8-4-4V4c0-2.2,1.8-4,4-4h30c2.2,0,4,1.8,4,4v30C38,36.2,36.2,38,34,38z"
	/>
<path id="rect3336" fill="#FFFFFF" d="M30.3,7.7L30.3,7.7c1,1,1,2.6,0,3.5L11.2,30.3c-1,1-2.6,1-3.5,0l0,0c-1-1-1-2.6,0-3.5
	L26.8,7.7C27.8,6.7,29.3,6.7,30.3,7.7z"/>
<path id="rect3338" fill="#FFFFFF" d="M11.2,7.7l19.1,19.1c1,1,1,2.6,0,3.5l0,0c-1,1-2.6,1-3.5,0L7.7,11.2c-1-1-1-2.6,0-3.5l0,0
	C8.7,6.7,10.2,6.7,11.2,7.7z"/>
</svg>
