<?xml version="1.0" encoding="utf-8"?>
<!-- Generator: Adobe Illustrator 24.1.2, SVG Export Plug-In . SVG Version: 6.00 Build 0)  -->
<svg xmlns="http://www.w3.org/2000/svg" xmlns:xlink="http://www.w3.org/1999/xlink" version="1.1" x="0" y="0" viewBox="0 0 38 38" enable-background="new 0 0 38 38" xml:space="preserve">
<path fill="#B8422C" d="M34,38H4c-2.2,0-4-1.8-4-4V4c0-2.2,1.8-4,4-4h30c2.2,0,4,1.8,4,4v30C38,36.2,36.2,38,34,38z"/>
<path fill="#FFFFFF" d="M29.2,10.2l-0.1-0.1c-2.2-2.5-5.5-2.8-7.9-0.8l1.6,5.5
	l-4.5,3.4l2.2,6.9l-6.7-7.7l4.5-3.4l-1.3-4.6c-2.4-2-5.8-1.8-8,0.7l-0.1,0.1c-2.3,2.7-2.4,6.9-0.3,9.8l9.9,11.7
	c0.3,0.4,0.9,0.4,1.2,0L29.5,20C31.6,17.2,31.5,12.9,29.2,10.2z"/>
</svg>
