<?xml version="1.0" encoding="utf-8"?>
<!-- Generator: Adobe Illustrator 24.1.2, SVG Export Plug-In . SVG Version: 6.00 Build 0)  -->
<svg version="1.1" id="Layer_1" xmlns="http://www.w3.org/2000/svg" xmlns:xlink="http://www.w3.org/1999/xlink" x="0px" y="0px"
	 viewBox="0 0 38 38" style="enable-background:new 0 0 38 38;" xml:space="preserve">
<style type="text/css">
	.st0{fill:#B8422C;}
	.st1{fill:#FFFFFF;}
</style>
<path class="st0" d="M34,38H4c-2.2,0-4-1.8-4-4V4c0-2.2,1.8-4,4-4h30c2.2,0,4,1.8,4,4v30C38,36.2,36.2,38,34,38z"/>
<g>
	<g id="LINE">
		<path class="st1" d="M38,12.6v3c0,0,0,0,0,0h-5.9c-0.1,0-0.4,0.2-0.6,0.7l-4.7,10.5c0,0,0,0,0,0.1c-0.1,0.3-0.4,0.6-0.6,0.8
			C25.7,27.8,25.3,28,25,28c-0.2,0-0.4,0-0.5-0.1c-0.6-0.2-1-0.6-1.3-1.2c0,0,0,0,0-0.1l-4-11.9l-4.2,13.9c-0.1,0.4-0.4,0.8-0.7,1
			c-0.3,0.3-0.8,0.4-1.2,0.4c-0.2,0-0.3,0-0.5-0.1c-0.6-0.2-1.1-0.6-1.3-1.2c0,0,0,0,0-0.1L6.5,16.4c-0.2-0.6-0.6-0.8-0.7-0.8H0
			c0,0,0,0,0,0v-3h5.8c0,0,0,0,0,0c1.5,0,2.7,1,3.4,2.7c0,0,0,0,0,0l3.7,9.5l4.2-14.1c0,0,0,0,0-0.1c0.1-0.4,0.4-0.8,0.7-1
			c0.5-0.4,1.1-0.5,1.6-0.3c0.6,0.2,1,0.6,1.3,1.2c0,0,0,0,0,0.1l4.2,12.5l3.6-8.1c0.3-0.7,0.8-1.3,1.3-1.7c0.6-0.5,1.3-0.7,2-0.7
			c0,0,0,0,0,0H38z"/>
	</g>
</g>
</svg>
