<?xml version="1.0" encoding="UTF-8" standalone="no"?>
<svg
   xmlns:dc="http://purl.org/dc/elements/1.1/"
   xmlns:cc="http://creativecommons.org/ns#"
   xmlns:rdf="http://www.w3.org/1999/02/22-rdf-syntax-ns#"
   xmlns:svg="http://www.w3.org/2000/svg"
   xmlns="http://www.w3.org/2000/svg"
   xmlns:sodipodi="http://sodipodi.sourceforge.net/DTD/sodipodi-0.dtd"
   xmlns:inkscape="http://www.inkscape.org/namespaces/inkscape"
   id="svg4136"
   xml:space="preserve"
   enable-background="new 0 0 38 38"
   viewBox="0 0 38 38"
   y="0"
   x="0"
   version="1.1"
   inkscape:version="0.91 r13725"
   sodipodi:docname="page_action_loved.svg"
   inkscape:export-filename="C:\Users\esprit\Development\web-scrobbler\src\icons\page_action_loved_19.png"
   inkscape:export-xdpi="45"
   inkscape:export-ydpi="45"><sodipodi:namedview
     pagecolor="#ffffff"
     bordercolor="#666666"
     borderopacity="1"
     objecttolerance="10"
     gridtolerance="10"
     guidetolerance="10"
     inkscape:pageopacity="0"
     inkscape:pageshadow="2"
     inkscape:window-width="1858"
     inkscape:window-height="1057"
     id="namedview8"
     showgrid="false"
     inkscape:zoom="0.77631579"
     inkscape:cx="327.43087"
     inkscape:cy="-273.97055"
     inkscape:window-x="-8"
     inkscape:window-y="-8"
     inkscape:window-maximized="1"
     inkscape:current-layer="svg4136" /><metadata
     id="metadata4146"><rdf:RDF><cc:Work
         rdf:about=""><dc:format>image/svg+xml</dc:format><dc:type
           rdf:resource="http://purl.org/dc/dcmitype/StillImage" /><dc:title></dc:title></cc:Work></rdf:RDF></metadata><defs
     id="defs4144" /><path
     style="fill:#b90000;fill-opacity:1"
     fill="#7F7F7F"
     id="path4138"
     d="M34 38H4c-2.2 0-4-1.8-4-4V4c0-2.2 1.8-4 4-4h30c2.2 0 4 1.8 4 4v30C38 36.2 36.2 38 34 38z" /><path
     style="fill:#ffffff;fill-opacity:1"
     d="M 12.198924,25.434334 C 8.1930589,20.759968 6.7088174,17.669427 7.0463642,14.705482 7.689447,9.058667 11.895496,6.3735909 15.933506,9.032066 c 2.454736,1.616107 3.678251,1.616107 6.132987,0 4.03801,-2.6584751 8.24406,0.0266 8.887143,5.673416 0.337547,2.963945 -1.146695,6.054486 -5.152561,10.728852 C 22.7064,29.04545 19.645915,32 19,32 18.354084,32 15.293599,29.04545 12.198924,25.434334 Z"
     id="path5280"
     inkscape:connector-curvature="0" /></svg>