<svg enable-background="new 0 0 38 38" viewBox="0 0 38 38" xmlns="http://www.w3.org/2000/svg"><path d="m34 38h-30c-2.2 0-4-1.8-4-4v-30c0-2.2 1.8-4 4-4h30c2.2 0 4 1.8 4 4v30c0 2.2-1.8 4-4 4z" fill="#d51007"/><path d="m28.670467 9.6410325c-2.5687-2.50174-6.38894-2.05174-8.7467.7285595l-.92342 1.08748-.92342-1.08748c-2.35308-2.7802995-6.17801-3.2302995-8.7467101-.7285595-2.94369 2.8713795-3.09838 8.0248595-.46405 11.1372995l9.0701301 10.70338c.58593.69105 1.53747.69105 2.1234 0l9.07014-10.70338c2.63901-3.11244 2.48433-8.26592-.45937-11.1372995z" fill="#fff"/></svg>