<svg enable-background="new 0 0 38 38" viewBox="0 0 38 38" xmlns="http://www.w3.org/2000/svg"><path d="m34 38h-30c-2.2 0-4-1.8-4-4v-30c0-2.2 1.8-4 4-4h30c2.2 0 4 1.8 4 4v30c0 2.2-1.8 4-4 4z" fill="#d51007"/><path d="m29.204093 10.238313-.11249-.13391c-2.15613-2.517511-5.53093-2.769261-7.94954-.792751l1.60772 5.538511-4.49974 3.428089 2.24987 6.85619-6.74961-7.71321 4.49974-3.42809-1.34055-4.63328c-2.42329-2.02472-5.83091-1.78904-8.0010901.74989l-.1125.12856c-2.2826798 2.66748-2.3811098 6.9151-.3421598 9.75935l9.9416099 11.70908c.33279.39101.87182.39101 1.20461 0l9.9463-11.71444c2.03894-2.83889 1.94051-7.08651-.34217-9.75399z" fill="#fff"/></svg>