<?xml version="1.0" encoding="utf-8"?>
<!-- Generator: Adobe Illustrator 24.1.2, SVG Export Plug-In . SVG Version: 6.00 Build 0)  -->
<svg version="1.1" id="Layer_1" xmlns="http://www.w3.org/2000/svg" xmlns:xlink="http://www.w3.org/1999/xlink" x="0px" y="0px"
	 viewBox="0 0 38 38" style="enable-background:new 0 0 38 38;" xml:space="preserve">
<style type="text/css">
	.st0{fill:#FFFFFF;}
	.st1{fill:#7F7F7F;}
</style>
<path class="st0" d="M26.5,26.7c-5.8,0-7.5-2.8-8.4-5.5l-1-3.3c-0.8-2.4-1.7-4.5-4.9-4.5c-2.1,0-4.3,1.5-4.3,5.8
	c0,3.2,1.7,5.4,4.2,5.4c2,0,3.5-1.1,4.1-1.7l0.8,2.3c-0.5,0.4-2.2,1.5-5.1,1.5c-4.5,0-6.9-2.6-6.9-7.4c0-5.1,2.5-7.9,7.1-7.9
	c4.3,0,6.3,1.5,7.7,5.6l1.1,3.3c0.7,2,1.9,4.3,5.7,4.3c1.6,0,3.7-0.2,3.7-2c0-1.2-0.8-1.9-2.4-2.3l-2.2-0.5c-2.5-0.6-3.6-1.8-3.6-4
	c0-3.8,3.5-4.4,5.5-4.4c3.3,0,5,1.2,5.3,3.6l-2.7,0.3c-0.2-1.3-1.1-2-2.8-2c-1.6,0-2.6,0.8-2.6,2.1c0,1.2,0.6,1.8,2.1,2.2l2.1,0.5
	c2.8,0.7,4.1,2,4.1,4.4C33,25.2,30.8,26.7,26.5,26.7z"/>
<path class="st1" d="M34,38H4c-2.2,0-4-1.8-4-4V4c0-2.2,1.8-4,4-4h30c2.2,0,4,1.8,4,4v30C38,36.2,36.2,38,34,38z"/>
<g>
	<g id="LINE">
		<path class="st0" d="M38,12.6v3c0,0,0,0,0,0h-5.9c-0.1,0-0.4,0.2-0.6,0.7l-4.7,10.5c0,0,0,0,0,0.1c-0.1,0.3-0.4,0.6-0.6,0.8
			C25.7,27.8,25.3,28,25,28c-0.2,0-0.4,0-0.5-0.1c-0.6-0.2-1-0.6-1.3-1.2c0,0,0,0,0-0.1l-4-11.9l-4.2,13.9c-0.1,0.4-0.4,0.8-0.7,1
			c-0.3,0.3-0.8,0.4-1.2,0.4c-0.2,0-0.3,0-0.5-0.1c-0.6-0.2-1.1-0.6-1.3-1.2c0,0,0,0,0-0.1L6.5,16.4c-0.2-0.6-0.6-0.8-0.7-0.8H0
			c0,0,0,0,0,0v-3h5.8c0,0,0,0,0,0c1.5,0,2.7,1,3.4,2.7c0,0,0,0,0,0l3.7,9.5l4.2-14.1c0,0,0,0,0-0.1c0.1-0.4,0.4-0.8,0.7-1
			c0.5-0.4,1.1-0.5,1.6-0.3c0.6,0.2,1,0.6,1.3,1.2c0,0,0,0,0,0.1l4.2,12.5l3.6-8.1c0.3-0.7,0.8-1.3,1.3-1.7c0.6-0.5,1.3-0.7,2-0.7
			c0,0,0,0,0,0H38z"/>
	</g>
</g>
</svg>
