<?xml version="1.0" encoding="utf-8"?>
<!-- Generator: Adobe Illustrator 24.1.2, SVG Export Plug-In . SVG Version: 6.00 Build 0)  -->
<svg version="1.1" baseProfile="tiny" id="Layer_1" xmlns="http://www.w3.org/2000/svg" xmlns:xlink="http://www.w3.org/1999/xlink"
	 x="0px" y="0px" viewBox="0 0 1024 1024" overflow="visible" xml:space="preserve">
<g>
	<path fill="#B8422C" d="M994.4,340.1H864c-0.4,0-0.7,0-1.1,0c-19.1,0.2-37.7,7-53.7,19.7c-14.2,11.2-26.2,27-34.6,45.6l-98.3,217.7
		L561.9,285.5c-0.2-0.7-0.5-1.3-0.7-2c-6.2-16.3-18.4-28.4-33.9-33.3c-15.1-4.7-31.1-2-44.1,7.5c-9.3,6.8-16.1,16.6-20,28.2
		c-0.2,0.5-0.4,1.1-0.5,1.6L348.3,667.7l-98.7-254.7c0-0.1-0.1-0.2-0.1-0.4c-17.3-44.3-52.2-72-91.3-72.5c-0.4,0-0.7,0-1.1,0H29.6
		C100.2,141.9,289.5,0,512,0S923.8,141.9,994.4,340.1z"/>
	<path fill="#B8422C" d="M1024,512.1c0,282.7-229.2,511.9-512,511.9S0,794.8,0,512.1c0-31.4,2.8-62.1,8.2-91.9h148.9
		c3,0,11.6,5.5,17.9,21.7L303.2,773c0.2,0.6,0.5,1.2,0.8,1.8c6.8,16.1,19.7,27.6,35.5,31.7c4,1,8.1,1.5,12.2,1.5
		c11.5,0,22.7-4.1,32-11.9c8.3-7,14.5-16.6,17.8-27.7l112.7-374.3L623.3,716c0.2,0.6,0.4,1.2,0.7,1.8c6.1,16.4,18.4,28.6,34,33.4
		c4.8,1.5,9.8,2.3,14.7,2.3c10.4,0,20.6-3.3,29.4-9.8c7.1-5.2,12.9-12.4,17-20.7c0.2-0.4,0.4-0.9,0.7-1.4l128-283.2
		c6.2-13.8,13.8-18.3,16.5-18.3h151.7C1021.2,450,1024,480.7,1024,512.1z"/>
</g>
<g>
	<g id="LINE">
		<path fill="#FFFFFF" d="M1015.8,420.2H864c-2.7,0-10.2,4.5-16.5,18.3l-128,283.2c-0.2,0.5-0.4,0.9-0.7,1.4
			c-4,8.3-9.9,15.5-17,20.7c-8.8,6.5-19,9.8-29.4,9.8c-4.9,0-9.9-0.7-14.7-2.3c-15.6-4.9-27.8-17-34-33.4c-0.2-0.6-0.5-1.2-0.7-1.8
			L514.2,394.1L401.5,768.4c-3.3,11.1-9.5,20.7-17.8,27.7c-9.3,7.8-20.5,11.9-32,11.9c-4,0-8.1-0.5-12.2-1.5
			c-15.8-4.1-28.7-15.6-35.5-31.7c-0.3-0.6-0.5-1.2-0.8-1.8L175,441.9c-6.3-16.3-14.9-21.7-17.9-21.7H8.2c5-27.5,12.2-54.2,21.3-80
			h127.5c0.4,0,0.7,0,1.1,0c39.1,0.5,74,28.1,91.3,72.5c0,0.1,0.1,0.2,0.1,0.4l98.7,254.7l114.5-380.1c0.2-0.5,0.3-1.1,0.5-1.6
			c3.8-11.7,10.7-21.4,20-28.2c12.9-9.5,29-12.3,44.1-7.5c15.5,4.9,27.8,17,33.9,33.3c0.3,0.7,0.5,1.3,0.7,2l114.4,337.6l98.3-217.7
			c8.4-18.6,20.4-34.4,34.6-45.6c16-12.6,34.6-19.5,53.7-19.7c0.4,0,0.7,0,1.1,0h130.4C1003.6,366,1010.8,392.7,1015.8,420.2z"/>
	</g>
</g>
</svg>
