<?xml version="1.0" encoding="utf-8"?>
<!-- Generator: Adobe Illustrator 24.1.2, SVG Export Plug-In . SVG Version: 6.00 Build 0)  -->
<svg version="1.1" id="Layer_1" xmlns="http://www.w3.org/2000/svg" xmlns:xlink="http://www.w3.org/1999/xlink" x="0px" y="0px"
	 viewBox="0 0 1024 1024" enable-background="new 0 0 1024 1024" xml:space="preserve">
<path fill="#B8422C" d="M1024,100v833.9c0,49.8-40.3,90.1-90.1,90.1H90.1C40.3,1024,0,983.7,0,933.9V90.1C0,40.3,40.3,0,90.1,0H924
	C979.2,0,1024,44.8,1024,100z"/>
<g>
	<g id="LINE">
		<path fill="#FFFFFF" d="M1024,340.1v80c-0.2,0-0.5,0-0.7,0H864c-2.7,0-10.2,4.5-16.5,18.3l-128,283.2c-0.2,0.5-0.4,0.9-0.7,1.4
			c-4,8.3-9.9,15.5-17,20.7c-8.8,6.5-19,9.8-29.4,9.8c-4.9,0-9.9-0.8-14.7-2.3c-15.6-4.9-27.8-17-34-33.4c-0.2-0.6-0.5-1.2-0.7-1.8
			L514.2,394.1L401.5,768.4c-3.3,11.1-9.5,20.7-17.8,27.7c-9.3,7.8-20.5,11.9-32,11.9c-4,0-8.1-0.5-12.2-1.5
			c-15.8-4.1-28.7-15.6-35.5-31.7c-0.3-0.6-0.5-1.2-0.8-1.8L175,441.9c-6.3-16.3-14.9-21.7-17.9-21.7H0.7c-0.2,0-0.5,0-0.7,0v-80
			h157.1c0.4,0,0.7,0,1.1,0c39.1,0.5,74,28.1,91.3,72.5c0,0.1,0.1,0.3,0.1,0.4l98.7,254.8l114.5-380.1c0.2-0.5,0.3-1.1,0.5-1.6
			c3.8-11.7,10.7-21.4,20-28.2c12.9-9.5,29-12.3,44.1-7.5c15.5,4.9,27.8,17,33.9,33.3c0.3,0.7,0.5,1.3,0.7,2l114.4,337.6l98.3-217.7
			c8.4-18.6,20.4-34.4,34.6-45.6c16-12.6,34.6-19.5,53.7-19.7c0.4,0,0.7,0,1.1,0H1024z"/>
	</g>
</g>
</svg>
