<?xml version="1.0" encoding="UTF-8" standalone="no"?>
<svg
   xmlns:dc="http://purl.org/dc/elements/1.1/"
   xmlns:cc="http://creativecommons.org/ns#"
   xmlns:rdf="http://www.w3.org/1999/02/22-rdf-syntax-ns#"
   xmlns:svg="http://www.w3.org/2000/svg"
   xmlns="http://www.w3.org/2000/svg"
   xmlns:sodipodi="http://sodipodi.sourceforge.net/DTD/sodipodi-0.dtd"
   xmlns:inkscape="http://www.inkscape.org/namespaces/inkscape"
   version="1.1"
   x="0"
   y="0"
   viewBox="0 0 38 38"
   enable-background="new 0 0 38 38"
   xml:space="preserve"
   id="svg4700"
   inkscape:version="0.91 r13725"
   sodipodi:docname="page_action_error.svg"><metadata
     id="metadata4710"><rdf:RDF><cc:Work
         rdf:about=""><dc:format>image/svg+xml</dc:format><dc:type
           rdf:resource="http://purl.org/dc/dcmitype/StillImage" /><dc:title></dc:title></cc:Work></rdf:RDF></metadata><defs
     id="defs4708" /><sodipodi:namedview
     pagecolor="#ffffff"
     bordercolor="#666666"
     borderopacity="1"
     objecttolerance="10"
     gridtolerance="10"
     guidetolerance="10"
     inkscape:pageopacity="0"
     inkscape:pageshadow="2"
     inkscape:window-width="1304"
     inkscape:window-height="745"
     id="namedview4706"
     showgrid="false"
     inkscape:zoom="6.2105263"
     inkscape:cx="-4.9915254"
     inkscape:cy="19"
     inkscape:window-x="-8"
     inkscape:window-y="-8"
     inkscape:window-maximized="1"
     inkscape:current-layer="svg4700" /><path
     fill="#B90000"
     d="M34 38H4c-2.2 0-4-1.8-4-4V4c0-2.2 1.8-4 4-4h30c2.2 0 4 1.8 4 4v30C38 36.2 36.2 38 34 38z"
     id="path4702"
     style="fill:#ffa800;fill-opacity:1" /><path
     fill="#FFFFFF"
     d="M26.5 26.7c-5.8 0-7.5-2.8-8.4-5.5l-1-3.3c-0.8-2.4-1.7-4.5-4.9-4.5 -2.1 0-4.3 1.5-4.3 5.8 0 3.2 1.7 5.4 4.2 5.4 2 0 3.5-1.1 4.1-1.7l0.8 2.3c-0.5 0.4-2.2 1.5-5.1 1.5 -4.5 0-6.9-2.6-6.9-7.4 0-5.1 2.5-7.9 7.1-7.9 4.3 0 6.3 1.5 7.7 5.6l1.1 3.3c0.7 2 1.9 4.3 5.7 4.3 1.6 0 3.7-0.2 3.7-2 0-1.2-0.8-1.9-2.4-2.3l-2.2-0.5c-2.5-0.6-3.6-1.8-3.6-4 0-3.8 3.5-4.4 5.5-4.4 3.3 0 5 1.2 5.3 3.6l-2.7 0.3c-0.2-1.3-1.1-2-2.8-2 -1.6 0-2.6 0.8-2.6 2.1 0 1.2 0.6 1.8 2.1 2.2l2.1 0.5c2.8 0.7 4.1 2 4.1 4.4C33 25.2 30.8 26.7 26.5 26.7z"
     id="path4704" /></svg>