<svg xmlns="http://www.w3.org/2000/svg" version="1.1" x="0" y="0" viewBox="0 0 38 38" enable-background="new 0 0 38 38" xml:space="preserve">
  <path fill="#7F7F7F" d="M38 34c0 2.2-1.8 4-4 4H4c-2.2 0-4-1.8-4-4V4c0-2.2 1.8-4 4-4h30c2.2 0 4 1.8 4 4V34z"></path>
  <path fill="#FFFFFF" d="M10.9 13c0-1 0.3-2.1 1-3.1 0.7-1.1 1.6-1.9 2.9-2.6 1.3-0.7 2.7-1 4.4-1 1.6 0 3 0.3 4.2 0.9 1.2 0.6 2.1 1.4 2.8 2.4 0.7 1 1 2.1 1 3.2 0 0.9-0.2 1.7-0.6 2.4 -0.4 0.7-0.8 1.3-1.3 1.8 -0.5 0.5-1.4 1.3-2.8 2.5 -0.4 0.3-0.7 0.6-0.9 0.9 -0.2 0.3-0.4 0.5-0.5 0.7 -0.1 0.2-0.2 0.4-0.3 0.6 -0.1 0.2-0.1 0.6-0.3 1.1 -0.2 1.1-0.9 1.7-1.9 1.7 -0.6 0-1-0.2-1.4-0.6 -0.4-0.4-0.6-0.9-0.6-1.6 0-0.9 0.1-1.7 0.4-2.4 0.3-0.7 0.7-1.2 1.1-1.8 0.5-0.5 1.1-1.1 1.9-1.8 0.7-0.6 1.2-1.1 1.5-1.4 0.3-0.3 0.6-0.7 0.8-1 0.2-0.4 0.3-0.8 0.3-1.2 0-0.9-0.3-1.6-1-2.2 -0.6-0.6-1.5-0.9-2.5-0.9 -1.2 0-2.1 0.3-2.6 0.9 -0.6 0.6-1 1.5-1.4 2.7 -0.4 1.2-1.1 1.8-2.1 1.8 -0.6 0-1.1-0.2-1.5-0.6C11.1 14 10.9 13.5 10.9 13zM18.9 31.8c-0.7 0-1.2-0.2-1.7-0.6 -0.5-0.4-0.7-1-0.7-1.8 0-0.7 0.2-1.3 0.7-1.7 0.5-0.5 1.1-0.7 1.8-0.7 0.7 0 1.3 0.2 1.7 0.7 0.5 0.5 0.7 1 0.7 1.7 0 0.8-0.2 1.4-0.7 1.8C20.1 31.6 19.5 31.8 18.9 31.8z"></path>
</svg>
