<?xml version="1.0" encoding="utf-8"?>
<!-- Generator: Adobe Illustrator 19.0.0, SVG Export Plug-In . SVG Version: 6.00 Build 0)  -->
<svg version="1.1" id="Layer_1" xmlns="http://www.w3.org/2000/svg" xmlns:xlink="http://www.w3.org/1999/xlink" x="0px" y="0px"
	 viewBox="-278 401.9 38 38" style="enable-background:new -278 401.9 38 38;" xml:space="preserve">
<style type="text/css">
	.st0{fill:#7F7F7F;}
	.st1{fill:#FFFFFF;}
</style>
<path class="st0" d="M-240,439.9h-38v-38h38V439.9z"/>
<path class="st1" d="M-267.1,414.9c0-1,0.3-2.1,1-3.1c0.7-1.1,1.6-1.9,2.9-2.6c1.3-0.7,2.7-1,4.4-1c1.6,0,3,0.3,4.2,0.9
	c1.2,0.6,2.1,1.4,2.8,2.4s1,2.1,1,3.2c0,0.9-0.2,1.7-0.6,2.4c-0.4,0.7-0.8,1.3-1.3,1.8s-1.4,1.3-2.8,2.5c-0.4,0.3-0.7,0.6-0.9,0.9
	c-0.2,0.3-0.4,0.5-0.5,0.7c-0.1,0.2-0.2,0.4-0.3,0.6c-0.1,0.2-0.1,0.6-0.3,1.1c-0.2,1.1-0.9,1.7-1.9,1.7c-0.6,0-1-0.2-1.4-0.6
	c-0.4-0.4-0.6-0.9-0.6-1.6c0-0.9,0.1-1.7,0.4-2.4c0.3-0.7,0.7-1.2,1.1-1.8c0.5-0.5,1.1-1.1,1.9-1.8c0.7-0.6,1.2-1.1,1.5-1.4
	c0.3-0.3,0.6-0.7,0.8-1c0.2-0.4,0.3-0.8,0.3-1.2c0-0.9-0.3-1.6-1-2.2c-0.6-0.6-1.5-0.9-2.5-0.9c-1.2,0-2.1,0.3-2.6,0.9
	c-0.6,0.6-1,1.5-1.4,2.7c-0.4,1.2-1.1,1.8-2.1,1.8c-0.6,0-1.1-0.2-1.5-0.6S-267.1,415.4-267.1,414.9z M-259.1,433.7
	c-0.7,0-1.2-0.2-1.7-0.6s-0.7-1-0.7-1.8c0-0.7,0.2-1.3,0.7-1.7c0.5-0.5,1.1-0.7,1.8-0.7s1.3,0.2,1.7,0.7c0.5,0.5,0.7,1,0.7,1.7
	c0,0.8-0.2,1.4-0.7,1.8C-257.9,433.5-258.5,433.7-259.1,433.7z"/>
</svg>
