<svg xmlns="http://www.w3.org/2000/svg" version="1.1" x="0" y="0" viewBox="0 0 38 38" enable-background="new 0 0 38 38" xml:space="preserve">
  <path d="M32.7 28.4l-6.8-6.8c1-1.7 1.6-3.6 1.6-5.7 0-6.1-5-11.1-11.2-11.1C10 4.8 5 9.8 5 15.9c0 6.1 5 11.1 11.2 11.1 2 0 3.8-0.5 5.5-1.4l6.8 6.8c0.5 0.5 1.2 0.5 1.7 0l2.5-2.4C33.1 29.6 33.1 28.9 32.7 28.4zM9.1 15.9c0-3.9 3.2-7.1 7.2-7.1 4 0 7.2 3.2 7.2 7.1 0 3.9-3.2 7.1-7.2 7.1C12.3 23 9.1 19.8 9.1 15.9z"></path>
  <path opacity="0.3" fill="#0077FF" d="M9.1 15.9c0-3.9 3.2-7.1 7.2-7.1 4 0 7.2 3.2 7.2 7.1 0 3.9-3.2 7.1-7.2 7.1C12.3 23 9.1 19.8 9.1 15.9z"></path>
</svg>
