<svg clip-rule="evenodd" fill-rule="evenodd" stroke-linejoin="round" stroke-miterlimit="2" viewBox="0 0 128 128" xmlns="http://www.w3.org/2000/svg"><path d="m25 5h78c11.046 0 20 8.954 20 20v78c0 6.982-3.578 13.129-9 16.706-3.156 2.082-6.936 3.294-11 3.294h-78c-11.046 0-20-8.954-20-20v-78c0-11.046 8.954-20 20-20z" fill="#386fdc"/><g fill="#fff"><path d="m29 17h70c6.627 0 12 5.373 12 12v70c0 6.627-5.373 12-12 12h-70c-6.627 0-12-5.373-12-12v-70c0-6.627 5.373-12 12-12z"/><path d="m997.706 523.309c-.661 0-1.193.532-1.193 1.193v13.763c0 .661.532 1.193 1.193 1.193s1.193-.532 1.193-1.193v-13.763c0-.661-.532-1.193-1.193-1.193zm42.604 0c-.67 0-1.2.532-1.2 1.193v13.763c0 .661.53 1.193 1.2 1.193.66 0 1.19-.532 1.19-1.193v-13.763c0-.661-.53-1.193-1.19-1.193zm-56.803 0c-.661 0-1.194.532-1.194 1.193v13.763c0 .661.533 1.193 1.194 1.193s1.193-.532 1.193-1.193v-13.763c0-.661-.532-1.193-1.193-1.193zm-15.975 0c-.661 0-1.193.532-1.193 1.193v13.763c0 .661.532 1.193 1.193 1.193s1.193-.532 1.193-1.193v-13.763c0-.661-.532-1.193-1.193-1.193zm-14.199 0c-.661 0-1.194.532-1.194 1.193v13.763c0 .661.533 1.193 1.194 1.193s1.193-.532 1.193-1.193v-13.763c0-.661-.532-1.193-1.193-1.193zm-14.2 0c-.661 0-1.193.532-1.193 1.193v13.763c0 .661.532 1.193 1.193 1.193s1.193-.532 1.193-1.193v-13.763c0-.661-.532-1.193-1.193-1.193zm72.777 0c-.66 0-1.2.532-1.2 1.193v13.763c0 .661.54 1.193 1.2 1.193s1.19-.532 1.19-1.193v-13.763c0-.661-.53-1.193-1.19-1.193zm14.2 0c-.67 0-1.2.532-1.2 1.193v13.763c0 .661.53 1.193 1.2 1.193.66 0 1.19-.532 1.19-1.193v-13.763c0-.661-.53-1.193-1.19-1.193zm28.39 0c-.66 0-1.19.532-1.19 1.193v13.763c0 .661.53 1.193 1.19 1.193s1.2-.532 1.2-1.193v-13.763c0-.661-.54-1.193-1.2-1.193zm-21.3 0c-.66 0-1.19.532-1.19 1.193v6.246c0 .661.53 1.193 1.19 1.193.67 0 1.2-.532 1.2-1.193v-6.246c0-.661-.53-1.193-1.2-1.193zm14.2 0c-.66 0-1.19.532-1.19 1.193v6.246c0 .661.53 1.193 1.19 1.193.67 0 1.2-.532 1.2-1.193v-6.246c0-.661-.53-1.193-1.2-1.193zm-56.794 0c-.661 0-1.193.532-1.193 1.193v6.246c0 .661.532 1.193 1.193 1.193s1.193-.532 1.193-1.193v-6.246c0-.661-.532-1.193-1.193-1.193zm-15.974 0c-.661 0-1.193.532-1.193 1.193v6.246c0 .661.532 1.193 1.193 1.193s1.193-.532 1.193-1.193v-6.246c0-.661-.532-1.193-1.193-1.193zm-14.2 0c-.661 0-1.193.532-1.193 1.193v6.246c0 .661.532 1.193 1.193 1.193s1.193-.532 1.193-1.193v-6.246c0-.661-.532-1.193-1.193-1.193zm-14.199 0c-.661 0-1.193.532-1.193 1.193v6.246c0 .661.532 1.193 1.193 1.193s1.193-.532 1.193-1.193v-6.246c0-.661-.532-1.193-1.193-1.193zm-14.2 0c-.661 0-1.193.532-1.193 1.193v6.246c0 .661.532 1.193 1.193 1.193s1.193-.532 1.193-1.193v-6.246c0-.661-.532-1.193-1.193-1.193zm86.967 0c-.66 0-1.19.532-1.19 1.193v6.246c0 .661.53 1.193 1.19 1.193.67 0 1.2-.532 1.2-1.193v-6.246c0-.661-.53-1.193-1.2-1.193zm42.6 0c-.66 0-1.19.532-1.19 1.193v6.246c0 .661.53 1.193 1.19 1.193.67 0 1.2-.532 1.2-1.193v-6.246c0-.661-.53-1.193-1.2-1.193zm-56.79 0c-.67 0-1.2.532-1.2 1.193v6.246c0 .661.53 1.193 1.2 1.193.66 0 1.19-.532 1.19-1.193v-6.246c0-.661-.53-1.193-1.19-1.193z" transform="matrix(.52640791186 0 0 .52678538919 -460.716676257 -268.9255945)"/><path d="m997.706 523.309c-.661 0-1.193.532-1.193 1.193v13.763c0 .661.532 1.193 1.193 1.193s1.193-.532 1.193-1.193v-13.763c0-.661-.532-1.193-1.193-1.193zm42.604 0c-.67 0-1.2.532-1.2 1.193v13.763c0 .661.53 1.193 1.2 1.193.66 0 1.19-.532 1.19-1.193v-13.763c0-.661-.53-1.193-1.19-1.193zm-56.803 0c-.661 0-1.194.532-1.194 1.193v13.763c0 .661.533 1.193 1.194 1.193s1.193-.532 1.193-1.193v-13.763c0-.661-.532-1.193-1.193-1.193zm-15.975 0c-.661 0-1.193.532-1.193 1.193v13.763c0 .661.532 1.193 1.193 1.193s1.193-.532 1.193-1.193v-13.763c0-.661-.532-1.193-1.193-1.193zm-14.199 0c-.661 0-1.194.532-1.194 1.193v13.763c0 .661.533 1.193 1.194 1.193s1.193-.532 1.193-1.193v-13.763c0-.661-.532-1.193-1.193-1.193zm-14.2 0c-.661 0-1.193.532-1.193 1.193v13.763c0 .661.532 1.193 1.193 1.193s1.193-.532 1.193-1.193v-13.763c0-.661-.532-1.193-1.193-1.193zm72.777 0c-.66 0-1.2.532-1.2 1.193v13.763c0 .661.54 1.193 1.2 1.193s1.19-.532 1.19-1.193v-13.763c0-.661-.53-1.193-1.19-1.193zm14.2 0c-.67 0-1.2.532-1.2 1.193v13.763c0 .661.53 1.193 1.2 1.193.66 0 1.19-.532 1.19-1.193v-13.763c0-.661-.53-1.193-1.19-1.193zm28.39 0c-.66 0-1.19.532-1.19 1.193v13.763c0 .661.53 1.193 1.19 1.193s1.2-.532 1.2-1.193v-13.763c0-.661-.54-1.193-1.2-1.193zm-21.3 0c-.66 0-1.19.532-1.19 1.193v6.246c0 .661.53 1.193 1.19 1.193.67 0 1.2-.532 1.2-1.193v-6.246c0-.661-.53-1.193-1.2-1.193zm14.2 0c-.66 0-1.19.532-1.19 1.193v6.246c0 .661.53 1.193 1.19 1.193.67 0 1.2-.532 1.2-1.193v-6.246c0-.661-.53-1.193-1.2-1.193zm-56.794 0c-.661 0-1.193.532-1.193 1.193v6.246c0 .661.532 1.193 1.193 1.193s1.193-.532 1.193-1.193v-6.246c0-.661-.532-1.193-1.193-1.193zm-15.974 0c-.661 0-1.193.532-1.193 1.193v6.246c0 .661.532 1.193 1.193 1.193s1.193-.532 1.193-1.193v-6.246c0-.661-.532-1.193-1.193-1.193zm-14.2 0c-.661 0-1.193.532-1.193 1.193v6.246c0 .661.532 1.193 1.193 1.193s1.193-.532 1.193-1.193v-6.246c0-.661-.532-1.193-1.193-1.193zm-14.199 0c-.661 0-1.193.532-1.193 1.193v6.246c0 .661.532 1.193 1.193 1.193s1.193-.532 1.193-1.193v-6.246c0-.661-.532-1.193-1.193-1.193zm-14.2 0c-.661 0-1.193.532-1.193 1.193v6.246c0 .661.532 1.193 1.193 1.193s1.193-.532 1.193-1.193v-6.246c0-.661-.532-1.193-1.193-1.193zm86.967 0c-.66 0-1.19.532-1.19 1.193v6.246c0 .661.53 1.193 1.19 1.193.67 0 1.2-.532 1.2-1.193v-6.246c0-.661-.53-1.193-1.2-1.193zm42.6 0c-.66 0-1.19.532-1.19 1.193v6.246c0 .661.53 1.193 1.19 1.193.67 0 1.2-.532 1.2-1.193v-6.246c0-.661-.53-1.193-1.2-1.193zm-56.79 0c-.67 0-1.2.532-1.2 1.193v6.246c0 .661.53 1.193 1.2 1.193.66 0 1.19-.532 1.19-1.193v-6.246c0-.661-.53-1.193-1.19-1.193z" transform="matrix(-.52640791186 0 0 -.52678538919 588.74579043 397.1776667)"/><path d="m997.706 523.309c-.661 0-1.193.532-1.193 1.193v13.763c0 .661.532 1.193 1.193 1.193s1.193-.532 1.193-1.193v-13.763c0-.661-.532-1.193-1.193-1.193zm42.604 0c-.67 0-1.2.532-1.2 1.193v13.763c0 .661.53 1.193 1.2 1.193.66 0 1.19-.532 1.19-1.193v-13.763c0-.661-.53-1.193-1.19-1.193zm-56.803 0c-.661 0-1.194.532-1.194 1.193v13.763c0 .661.533 1.193 1.194 1.193s1.193-.532 1.193-1.193v-13.763c0-.661-.532-1.193-1.193-1.193zm-15.975 0c-.661 0-1.193.532-1.193 1.193v13.763c0 .661.532 1.193 1.193 1.193s1.193-.532 1.193-1.193v-13.763c0-.661-.532-1.193-1.193-1.193zm-14.199 0c-.661 0-1.194.532-1.194 1.193v13.763c0 .661.533 1.193 1.194 1.193s1.193-.532 1.193-1.193v-13.763c0-.661-.532-1.193-1.193-1.193zm-14.2 0c-.661 0-1.193.532-1.193 1.193v13.763c0 .661.532 1.193 1.193 1.193s1.193-.532 1.193-1.193v-13.763c0-.661-.532-1.193-1.193-1.193zm72.777 0c-.66 0-1.2.532-1.2 1.193v13.763c0 .661.54 1.193 1.2 1.193s1.19-.532 1.19-1.193v-13.763c0-.661-.53-1.193-1.19-1.193zm14.2 0c-.67 0-1.2.532-1.2 1.193v13.763c0 .661.53 1.193 1.2 1.193.66 0 1.19-.532 1.19-1.193v-13.763c0-.661-.53-1.193-1.19-1.193zm28.39 0c-.66 0-1.19.532-1.19 1.193v13.763c0 .661.53 1.193 1.19 1.193s1.2-.532 1.2-1.193v-13.763c0-.661-.54-1.193-1.2-1.193zm-21.3 0c-.66 0-1.19.532-1.19 1.193v6.246c0 .661.53 1.193 1.19 1.193.67 0 1.2-.532 1.2-1.193v-6.246c0-.661-.53-1.193-1.2-1.193zm14.2 0c-.66 0-1.19.532-1.19 1.193v6.246c0 .661.53 1.193 1.19 1.193.67 0 1.2-.532 1.2-1.193v-6.246c0-.661-.53-1.193-1.2-1.193zm-56.794 0c-.661 0-1.193.532-1.193 1.193v6.246c0 .661.532 1.193 1.193 1.193s1.193-.532 1.193-1.193v-6.246c0-.661-.532-1.193-1.193-1.193zm-15.974 0c-.661 0-1.193.532-1.193 1.193v6.246c0 .661.532 1.193 1.193 1.193s1.193-.532 1.193-1.193v-6.246c0-.661-.532-1.193-1.193-1.193zm-14.2 0c-.661 0-1.193.532-1.193 1.193v6.246c0 .661.532 1.193 1.193 1.193s1.193-.532 1.193-1.193v-6.246c0-.661-.532-1.193-1.193-1.193zm-14.199 0c-.661 0-1.193.532-1.193 1.193v6.246c0 .661.532 1.193 1.193 1.193s1.193-.532 1.193-1.193v-6.246c0-.661-.532-1.193-1.193-1.193zm-14.2 0c-.661 0-1.193.532-1.193 1.193v6.246c0 .661.532 1.193 1.193 1.193s1.193-.532 1.193-1.193v-6.246c0-.661-.532-1.193-1.193-1.193zm86.967 0c-.66 0-1.19.532-1.19 1.193v6.246c0 .661.53 1.193 1.19 1.193.67 0 1.2-.532 1.2-1.193v-6.246c0-.661-.53-1.193-1.2-1.193zm42.6 0c-.66 0-1.19.532-1.19 1.193v6.246c0 .661.53 1.193 1.19 1.193.67 0 1.2-.532 1.2-1.193v-6.246c0-.661-.53-1.193-1.2-1.193zm-56.79 0c-.67 0-1.2.532-1.2 1.193v6.246c0 .661.53 1.193 1.2 1.193.66 0 1.19-.532 1.19-1.193v-6.246c0-.661-.53-1.193-1.19-1.193z" transform="matrix(0 .52640764394 -.52678538643 0 397.39234403 -460.502278096)"/><path d="m997.706 523.309c-.661 0-1.193.532-1.193 1.193v13.763c0 .661.532 1.193 1.193 1.193s1.193-.532 1.193-1.193v-13.763c0-.661-.532-1.193-1.193-1.193zm42.604 0c-.67 0-1.2.532-1.2 1.193v13.763c0 .661.53 1.193 1.2 1.193.66 0 1.19-.532 1.19-1.193v-13.763c0-.661-.53-1.193-1.19-1.193zm-56.803 0c-.661 0-1.194.532-1.194 1.193v13.763c0 .661.533 1.193 1.194 1.193s1.193-.532 1.193-1.193v-13.763c0-.661-.532-1.193-1.193-1.193zm-15.975 0c-.661 0-1.193.532-1.193 1.193v13.763c0 .661.532 1.193 1.193 1.193s1.193-.532 1.193-1.193v-13.763c0-.661-.532-1.193-1.193-1.193zm-14.199 0c-.661 0-1.194.532-1.194 1.193v13.763c0 .661.533 1.193 1.194 1.193s1.193-.532 1.193-1.193v-13.763c0-.661-.532-1.193-1.193-1.193zm-14.2 0c-.661 0-1.193.532-1.193 1.193v13.763c0 .661.532 1.193 1.193 1.193s1.193-.532 1.193-1.193v-13.763c0-.661-.532-1.193-1.193-1.193zm72.777 0c-.66 0-1.2.532-1.2 1.193v13.763c0 .661.54 1.193 1.2 1.193s1.19-.532 1.19-1.193v-13.763c0-.661-.53-1.193-1.19-1.193zm14.2 0c-.67 0-1.2.532-1.2 1.193v13.763c0 .661.53 1.193 1.2 1.193.66 0 1.19-.532 1.19-1.193v-13.763c0-.661-.53-1.193-1.19-1.193zm28.39 0c-.66 0-1.19.532-1.19 1.193v13.763c0 .661.53 1.193 1.19 1.193s1.2-.532 1.2-1.193v-13.763c0-.661-.54-1.193-1.2-1.193zm-21.3 0c-.66 0-1.19.532-1.19 1.193v6.246c0 .661.53 1.193 1.19 1.193.67 0 1.2-.532 1.2-1.193v-6.246c0-.661-.53-1.193-1.2-1.193zm14.2 0c-.66 0-1.19.532-1.19 1.193v6.246c0 .661.53 1.193 1.19 1.193.67 0 1.2-.532 1.2-1.193v-6.246c0-.661-.53-1.193-1.2-1.193zm-56.794 0c-.661 0-1.193.532-1.193 1.193v6.246c0 .661.532 1.193 1.193 1.193s1.193-.532 1.193-1.193v-6.246c0-.661-.532-1.193-1.193-1.193zm-15.974 0c-.661 0-1.193.532-1.193 1.193v6.246c0 .661.532 1.193 1.193 1.193s1.193-.532 1.193-1.193v-6.246c0-.661-.532-1.193-1.193-1.193zm-14.2 0c-.661 0-1.193.532-1.193 1.193v6.246c0 .661.532 1.193 1.193 1.193s1.193-.532 1.193-1.193v-6.246c0-.661-.532-1.193-1.193-1.193zm-14.199 0c-.661 0-1.193.532-1.193 1.193v6.246c0 .661.532 1.193 1.193 1.193s1.193-.532 1.193-1.193v-6.246c0-.661-.532-1.193-1.193-1.193zm-14.2 0c-.661 0-1.193.532-1.193 1.193v6.246c0 .661.532 1.193 1.193 1.193s1.193-.532 1.193-1.193v-6.246c0-.661-.532-1.193-1.193-1.193zm86.967 0c-.66 0-1.19.532-1.19 1.193v6.246c0 .661.53 1.193 1.19 1.193.67 0 1.2-.532 1.2-1.193v-6.246c0-.661-.53-1.193-1.2-1.193zm42.6 0c-.66 0-1.19.532-1.19 1.193v6.246c0 .661.53 1.193 1.19 1.193.67 0 1.2-.532 1.2-1.193v-6.246c0-.661-.53-1.193-1.2-1.193zm-56.79 0c-.67 0-1.2.532-1.2 1.193v6.246c0 .661.53 1.193 1.2 1.193.66 0 1.19-.532 1.19-1.193v-6.246c0-.661-.53-1.193-1.19-1.193z" transform="matrix(0 -.52640764394 .52678538643 0 -269.017522947 588.96753326)"/><path d="m1106.43 560.499c-.02-.66-.56-1.178-1.22-1.161l-13.77.358c-.66.017-1.18.562-1.16 1.223.01.66.56 1.178 1.22 1.161l13.77-.358c.66-.017 1.18-.562 1.16-1.223zm-1.47-7.753c-.13-.648-.75-1.067-1.4-.94l-6.13 1.204c-.65.128-1.07.752-.94 1.4.12.648.75 1.068 1.4.94l6.13-1.204c.65-.127 1.07-.752.94-1.4zm-3.29-8.976c-.31-.585-1.03-.809-1.62-.502l-12.19 6.39c-.59.307-.81 1.025-.51 1.61.31.585 1.03.809 1.61.502l12.2-6.39c.59-.307.81-1.025.51-1.61zm-12.72-14.428c-.54-.391-1.28-.276-1.67.258l-8.14 11.102c-.39.533-.28 1.277.26 1.667.53.391 1.27.276 1.66-.258l8.14-11.102c.39-.533.28-1.277-.25-1.667zm7.4 6.244c-.44-.491-1.19-.529-1.69-.086l-4.64 4.183c-.49.443-.53 1.194-.08 1.685.44.49 1.19.529 1.68.086l4.64-4.184c.49-.442.53-1.194.09-1.684zm-27.38-12.277c-.66 0-1.19.532-1.19 1.193v13.763c0 .661.53 1.193 1.19 1.193s1.2-.532 1.2-1.193v-13.763c0-.661-.54-1.193-1.2-1.193zm10.64 1.575c-.63-.2-1.3.147-1.5.777l-1.88 5.955c-.2.63.14 1.298.77 1.497s1.3-.147 1.5-.778l1.89-5.954c.2-.63-.15-1.298-.78-1.497z" transform="matrix(0 -.52640764394 .52678538643 0 -269.056765353 589.25738729)"/><path d="m1106.43 560.499c-.02-.66-.56-1.178-1.22-1.161l-13.77.358c-.66.017-1.18.562-1.16 1.223.01.66.56 1.178 1.22 1.161l13.77-.358c.66-.017 1.18-.562 1.16-1.223zm-1.47-7.753c-.13-.648-.75-1.067-1.4-.94l-6.13 1.204c-.65.128-1.07.752-.94 1.4.12.648.75 1.068 1.4.94l6.13-1.204c.65-.127 1.07-.752.94-1.4zm-3.29-8.976c-.31-.585-1.03-.809-1.62-.502l-12.19 6.39c-.59.307-.81 1.025-.51 1.61.31.585 1.03.809 1.61.502l12.2-6.39c.59-.307.81-1.025.51-1.61zm-12.72-14.428c-.54-.391-1.28-.276-1.67.258l-8.14 11.102c-.39.533-.28 1.277.26 1.667.53.391 1.27.276 1.66-.258l8.14-11.102c.39-.533.28-1.277-.25-1.667zm7.4 6.244c-.44-.491-1.19-.529-1.69-.086l-4.64 4.183c-.49.443-.53 1.194-.08 1.685.44.49 1.19.529 1.68.086l4.64-4.184c.49-.442.53-1.194.09-1.684zm-27.38-12.277c-.66 0-1.19.532-1.19 1.193v13.763c0 .661.53 1.193 1.19 1.193s1.2-.532 1.2-1.193v-13.763c0-.661-.54-1.193-1.2-1.193zm10.64 1.575c-.63-.2-1.3.147-1.5.777l-1.88 5.955c-.2.63.14 1.298.77 1.497s1.3-.147 1.5-.778l1.89-5.954c.2-.63-.15-1.298-.78-1.497z" transform="matrix(.52640791186 0 0 .52678538919 -460.716676257 -268.884453928)"/><path d="m1106.43 560.499c-.02-.66-.56-1.178-1.22-1.161l-13.77.358c-.66.017-1.18.562-1.16 1.223.01.66.56 1.178 1.22 1.161l13.77-.358c.66-.017 1.18-.562 1.16-1.223zm-1.47-7.753c-.13-.648-.75-1.067-1.4-.94l-6.13 1.204c-.65.128-1.07.752-.94 1.4.12.648.75 1.068 1.4.94l6.13-1.204c.65-.127 1.07-.752.94-1.4zm-3.29-8.976c-.31-.585-1.03-.809-1.62-.502l-12.19 6.39c-.59.307-.81 1.025-.51 1.61.31.585 1.03.809 1.61.502l12.2-6.39c.59-.307.81-1.025.51-1.61zm-12.72-14.428c-.54-.391-1.28-.276-1.67.258l-8.14 11.102c-.39.533-.28 1.277.26 1.667.53.391 1.27.276 1.66-.258l8.14-11.102c.39-.533.28-1.277-.25-1.667zm7.4 6.244c-.44-.491-1.19-.529-1.69-.086l-4.64 4.183c-.49.443-.53 1.194-.08 1.685.44.49 1.19.529 1.68.086l4.64-4.184c.49-.442.53-1.194.09-1.684zm-27.38-12.277c-.66 0-1.19.532-1.19 1.193v13.763c0 .661.53 1.193 1.19 1.193s1.2-.532 1.2-1.193v-13.763c0-.661-.54-1.193-1.2-1.193zm10.64 1.575c-.63-.2-1.3.147-1.5.777l-1.88 5.955c-.2.63.14 1.298.77 1.497s1.3-.147 1.5-.778l1.89-5.954c.2-.63-.15-1.298-.78-1.497z" transform="matrix(0 .52640764394 -.52678538643 0 397.44840461 -460.9346281072)"/><path d="m1106.43 560.499c-.02-.66-.56-1.178-1.22-1.161l-13.77.358c-.66.017-1.18.562-1.16 1.223.01.66.56 1.178 1.22 1.161l13.77-.358c.66-.017 1.18-.562 1.16-1.223zm-1.47-7.753c-.13-.648-.75-1.067-1.4-.94l-6.13 1.204c-.65.128-1.07.752-.94 1.4.12.648.75 1.068 1.4.94l6.13-1.204c.65-.127 1.07-.752.94-1.4zm-3.29-8.976c-.31-.585-1.03-.809-1.62-.502l-12.19 6.39c-.59.307-.81 1.025-.51 1.61.31.585 1.03.809 1.61.502l12.2-6.39c.59-.307.81-1.025.51-1.61zm-12.72-14.428c-.54-.391-1.28-.276-1.67.258l-8.14 11.102c-.39.533-.28 1.277.26 1.667.53.391 1.27.276 1.66-.258l8.14-11.102c.39-.533.28-1.277-.25-1.667zm7.4 6.244c-.44-.491-1.19-.529-1.69-.086l-4.64 4.183c-.49.443-.53 1.194-.08 1.685.44.49 1.19.529 1.68.086l4.64-4.184c.49-.442.53-1.194.09-1.684zm-27.38-12.277c-.66 0-1.19.532-1.19 1.193v13.763c0 .661.53 1.193 1.19 1.193s1.2-.532 1.2-1.193v-13.763c0-.661-.54-1.193-1.2-1.193zm10.64 1.575c-.63-.2-1.3.147-1.5.777l-1.88 5.955c-.2.63.14 1.298.77 1.497s1.3-.147 1.5-.778l1.89-5.954c.2-.63-.15-1.298-.78-1.497z" transform="matrix(-.52640791186 0 0 -.52678538919 589.12887106 397.271168)"/></g><path d="m98.737 108h-69.474c-5.095 0-9.263-4.168-9.263-9.263v-69.474c0-5.095 4.168-9.263 9.263-9.263h69.474c5.095 0 9.263 4.168 9.263 9.263v69.474c0 5.095-4.168 9.263-9.263 9.263z" fill="#178dce"/><path d="m81.368 81.832c-13.431 0-17.368-6.485-19.452-12.737l-2.316-7.642c-1.853-5.558-3.937-10.421-11.347-10.421-4.863 0-9.958 3.473-9.958 13.431 0 7.411 3.937 12.505 9.726 12.505 4.632 0 8.105-2.547 9.495-3.936l1.852 5.326c-1.157.926-5.094 3.474-11.81 3.474-10.421 0-15.979-6.021-15.979-17.137 0-11.811 5.789-18.295 16.442-18.295 9.958 0 14.59 3.474 17.832 12.968l2.547 7.642c1.621 4.632 4.4 9.958 13.2 9.958 3.705 0 8.568-.463 8.568-4.631 0-2.779-1.852-4.4-5.557-5.327l-5.095-1.157c-5.79-1.39-8.337-4.169-8.337-9.263 0-8.801 8.105-10.19 12.737-10.19 7.642 0 11.579 2.779 12.274 8.337l-6.253.695c-.463-3.011-2.547-4.632-6.484-4.632-3.706 0-6.021 1.853-6.021 4.863 0 2.779 1.389 4.169 4.863 5.095l4.863 1.158c6.484 1.621 9.495 4.631 9.495 10.189-.232 6.253-5.327 9.727-15.285 9.727z" fill="#fff"/></svg>