<?xml version="1.0" encoding="utf-8"?>
<svg viewBox="0 0 512 512" xmlns="http://www.w3.org/2000/svg">
  <path d="M 127.9 398.2 C 45.7 398.2 0 350.1 0 261 C 0 172.341 41.803 118.624 120.771 114.109 L 298.877 292.215 C 309.36 316.572 325.017 335.584 351.393 344.73 L 404.546 397.884 C 399.812 398.096 394.96 398.2 390 398.2 C 288.6 398.2 253.4 352.5 234.6 295.6 C 208.5 214 200.2 160.7 133.7 160.7 C 98 160.7 61.6 186.5 61.6 258.6 C 61.6 314.9 90.3 350.1 130.8 350.1 C 176.5 350.1 207 316.1 207 316.1 L 225.8 367.1 C 225.8 367.1 194.1 398.2 127.9 398.2 Z M 452 320.2 C 452 288.3 417.1 285.1 372.2 274.5 C 323.6 262.8 304.2 237.6 304.2 197.7 C 304.2 133.7 355.8 113.8 408.6 113.8 C 468.4 113.8 504.8 135.5 509.5 188.3 L 450.9 195.3 C 448.6 170.1 433.4 159.5 405.2 159.5 C 379.4 159.5 363.6 171.3 363.6 191.2 C 363.6 208.8 371.2 219.3 397 225.2 C 449.3 236.7 512 244.4 512 317.3 C 512 355.712 490.818 378.526 455.747 389.687 L 415.338 349.278 C 439.427 346.015 452 336.951 452 320.2 Z"/>
  <rect x="539.749" y="227.687" width="586" height="42" style="stroke: rgb(0, 0, 0);" transform="matrix(0.707107, 0.707106, -0.707106, 0.707107, -170.291641, -498.827667)"/>
</svg>