<?xml version="1.0" encoding="UTF-8" standalone="no"?>
<svg
   clip-rule="evenodd"
   fill-rule="evenodd"
   stroke-linejoin="round"
   stroke-miterlimit="2"
   viewBox="0 0 128 128"
   version="1.1"
   id="svg8569"
   sodipodi:docname="action_unsupported.svg"
   inkscape:version="1.2.2 (b0a84865, 2022-12-01)"
   xmlns:inkscape="http://www.inkscape.org/namespaces/inkscape"
   xmlns:sodipodi="http://sodipodi.sourceforge.net/DTD/sodipodi-0.dtd"
   xmlns="http://www.w3.org/2000/svg"
   xmlns:svg="http://www.w3.org/2000/svg">
  <defs
     id="defs68089" />
  <sodipodi:namedview
     id="namedview8571"
     pagecolor="#ffffff"
     bordercolor="#000000"
     borderopacity="0.25"
     inkscape:showpageshadow="2"
     inkscape:pageopacity="0.0"
     inkscape:pagecheckerboard="0"
     inkscape:deskcolor="#d1d1d1"
     showgrid="false"
     inkscape:zoom="3.2430926"
     inkscape:cx="-57.044316"
     inkscape:cy="58.586055"
     inkscape:window-width="1440"
     inkscape:window-height="764"
     inkscape:window-x="0"
     inkscape:window-y="25"
     inkscape:window-maximized="0"
     inkscape:current-layer="svg8569" />
  <mask
     id="letterMask"
     maskUnits="userSpaceOnUse">
    <rect
       width="1337"
       height="744"
       fill="white"
       id="rect8556" />
    <path
       style="fill: none; stroke-linejoin: miter; stroke-width: 9px; stroke: rgb(0, 0, 0);"
       d="M 57.123 78.219 C 59.668 80.866 63.929 81.479 67.048 77.159 C 69.574 73.66 70.638 66.107 70.424 56.132"
       id="path8558" />
  </mask>
  <g
     id="logo"
     transform="matrix(2.0961067,0,0,2.0961067,-70.813961,-70.848841)">
    <path
       style="fill:none;stroke:#000000;stroke-width:7px;stroke-opacity:1"
       d="m 68.788,77.163 c 1.692,2.258 8.32,3.212 11.638,3.209 4.264,-0.004 7.426,-1.035 9.564,-3.712 1.527,-1.913 2.066,-5.512 -0.488,-8.37 -5.033,-5.632 -17.568,-3.46 -18.778,-9.153 -0.54,-2.542 -0.137,-1.181 -0.083,-1.485"
       mask="url(#letterMask)"
       id="logos" />
    <path
       style="display:inline;fill:none;stroke:#000000;stroke-width:7px;stroke-linejoin:miter;stroke-opacity:1"
       d="m 37.402,49.633 c -0.034,6.166 -0.017,5.613 -0.05,13.419 -0.028,6.61 0.501,11.431 3.244,14.8 3.103,3.811 7.167,2.502 9.024,0.576 3.771,-3.909 4.172,-11.898 4.194,-17.975 0.043,6.163 0.051,14.378 3.309,17.766 2.545,2.647 6.806,3.26 9.925,-1.06 2.526,-3.499 3.59,-11.052 3.376,-21.027 -0.097,-4.535 2.987,-7.837 9.855,-7.838 6.205,-10e-4 10.134,2.829 10.68,6.983"
       id="logow" />
  </g>
</svg>
