<svg xmlns="http://www.w3.org/2000/svg" xmlns:xlink="http://www.w3.org/1999/xlink" version="1.1" x="0" y="0" viewBox="0 0 38 38" enable-background="new 0 0 38 38" xml:space="preserve">
  <path fill="#7F7F7F" d="M38 34c0 2.2-1.8 4-4 4H4c-2.2 0-4-1.8-4-4V4c0-2.2 1.8-4 4-4h30c2.2 0 4 1.8 4 4V34z"></path>
  <path fill="#FFFFFF" d="M14 11.3c0 0.6 0 14.3 0 14.3 0-0.3-1.2-0.5-2.1-0.5 -2.3 0-4.5 1.5-4.5 3.4 0 1.9 2.1 3.5 4.5 3.5 2.2 0 4.1-1.7 4.1-3.5V13.8l10-3v10.6c-1-0.3-1.5-0.5-2.3-0.5 -2.3 0-4.6 1.5-4.6 3.4s2.3 3.5 4.7 3.5c2.2 0 4.3-1.9 4.3-3.5 0 0 0-16.4 0-17 0-0.7-0.5-1-1-0.8C26.5 6.6 15.8 9.8 15.2 10 14.6 10.2 14 10.7 14 11.3z"></path>
</svg>
