<?xml version="1.0" encoding="UTF-8" standalone="no"?>
<!-- Generator: Adobe Illustrator 19.0.0, SVG Export Plug-In . SVG Version: 6.00 Build 0)  -->

<svg
   xmlns:dc="http://purl.org/dc/elements/1.1/"
   xmlns:cc="http://creativecommons.org/ns#"
   xmlns:rdf="http://www.w3.org/1999/02/22-rdf-syntax-ns#"
   xmlns:svg="http://www.w3.org/2000/svg"
   xmlns="http://www.w3.org/2000/svg"
   xmlns:sodipodi="http://sodipodi.sourceforge.net/DTD/sodipodi-0.dtd"
   xmlns:inkscape="http://www.inkscape.org/namespaces/inkscape"
   version="1.1"
   id="Layer_1"
   x="0px"
   y="0px"
   viewBox="-278 401.9 38 38"
   style="enable-background:new -278 401.9 38 38;"
   xml:space="preserve"
   inkscape:version="0.91 r13725"
   sodipodi:docname="question.svg"><metadata
     id="metadata4147"><rdf:RDF><cc:Work
         rdf:about=""><dc:format>image/svg+xml</dc:format><dc:type
           rdf:resource="http://purl.org/dc/dcmitype/StillImage" /></cc:Work></rdf:RDF></metadata><defs
     id="defs4145" /><sodipodi:namedview
     pagecolor="#ffffff"
     bordercolor="#666666"
     borderopacity="1"
     objecttolerance="10"
     gridtolerance="10"
     guidetolerance="10"
     inkscape:pageopacity="0"
     inkscape:pageshadow="2"
     inkscape:window-width="1304"
     inkscape:window-height="745"
     id="namedview4143"
     showgrid="false"
     inkscape:zoom="14.368421"
     inkscape:cx="21.157509"
     inkscape:cy="19"
     inkscape:window-x="-8"
     inkscape:window-y="-8"
     inkscape:window-maximized="1"
     inkscape:current-layer="Layer_1" /><style
     type="text/css"
     id="style4137">
	.st0{fill:#7F7F7F;}
	.st1{fill:#FFFFFF;}
</style><path
     class="st0"
     d="M-240,439.9h-38v-38h38V439.9z"
     id="path4139"
     style="fill:#ebebeb;fill-opacity:1" /><path
     class="st1"
     d="M-267.1,414.9c0-1,0.3-2.1,1-3.1c0.7-1.1,1.6-1.9,2.9-2.6c1.3-0.7,2.7-1,4.4-1c1.6,0,3,0.3,4.2,0.9  c1.2,0.6,2.1,1.4,2.8,2.4s1,2.1,1,3.2c0,0.9-0.2,1.7-0.6,2.4c-0.4,0.7-0.8,1.3-1.3,1.8s-1.4,1.3-2.8,2.5c-0.4,0.3-0.7,0.6-0.9,0.9  c-0.2,0.3-0.4,0.5-0.5,0.7c-0.1,0.2-0.2,0.4-0.3,0.6c-0.1,0.2-0.1,0.6-0.3,1.1c-0.2,1.1-0.9,1.7-1.9,1.7c-0.6,0-1-0.2-1.4-0.6  c-0.4-0.4-0.6-0.9-0.6-1.6c0-0.9,0.1-1.7,0.4-2.4c0.3-0.7,0.7-1.2,1.1-1.8c0.5-0.5,1.1-1.1,1.9-1.8c0.7-0.6,1.2-1.1,1.5-1.4  c0.3-0.3,0.6-0.7,0.8-1c0.2-0.4,0.3-0.8,0.3-1.2c0-0.9-0.3-1.6-1-2.2c-0.6-0.6-1.5-0.9-2.5-0.9c-1.2,0-2.1,0.3-2.6,0.9  c-0.6,0.6-1,1.5-1.4,2.7c-0.4,1.2-1.1,1.8-2.1,1.8c-0.6,0-1.1-0.2-1.5-0.6S-267.1,415.4-267.1,414.9z M-259.1,433.7  c-0.7,0-1.2-0.2-1.7-0.6s-0.7-1-0.7-1.8c0-0.7,0.2-1.3,0.7-1.7c0.5-0.5,1.1-0.7,1.8-0.7s1.3,0.2,1.7,0.7c0.5,0.5,0.7,1,0.7,1.7  c0,0.8-0.2,1.4-0.7,1.8C-257.9,433.5-258.5,433.7-259.1,433.7z"
     id="path4141" /></svg>